<svg xmlns="http://www.w3.org/2000/svg" xmlns:xlink="http://www.w3.org/1999/xlink" width="50" zoomAndPan="magnify" viewBox="0 0 37.5 37.499999" height="50" preserveAspectRatio="xMidYMid meet" version="1.0"><defs><g/></defs><g fill="#0097b2" fill-opacity="1"><g transform="translate(0.464321, 27.661986)"><g><path d="M 12.734375 -20.65625 C 16.046875 -20.65625 18.726562 -19.945312 20.78125 -18.53125 C 22.84375 -17.113281 23.875 -14.953125 23.875 -12.046875 L 16.484375 -12.046875 C 16.484375 -14.335938 15.234375 -15.484375 12.734375 -15.484375 C 10.234375 -15.484375 8.984375 -14.046875 8.984375 -11.171875 L 8.984375 -8.984375 C 8.984375 -6.128906 10.285156 -4.703125 12.890625 -4.703125 C 15.492188 -4.703125 16.796875 -5.875 16.796875 -8.21875 L 23.875 -8.21875 C 23.875 -5.289062 22.84375 -3.113281 20.78125 -1.6875 C 18.726562 -0.257812 16.046875 0.453125 12.734375 0.453125 C 9.191406 0.453125 6.410156 -0.4375 4.390625 -2.21875 C 2.378906 -4 1.375 -6.625 1.375 -10.09375 C 1.375 -13.5625 2.378906 -16.1875 4.390625 -17.96875 C 6.410156 -19.757812 9.191406 -20.65625 12.734375 -20.65625 Z M 12.734375 -20.65625 "/></g></g></g><g fill="#db4a2b" fill-opacity="1"><g transform="translate(23.801593, 27.661986)"><g><path d="M 2.328125 0 L 2.328125 -7.609375 L 10.4375 -7.609375 L 10.4375 0 Z M 2.328125 0 "/></g></g></g></svg>